<svg id="Layer_1" data-name="Layer 1" xmlns="http://www.w3.org/2000/svg" xmlns:xlink="http://www.w3.org/1999/xlink" viewBox="0 0 100 100"><defs><style>.cls-1,.cls-3{fill:#a5975e;}.cls-2{fill:#f1f2f2;}.cls-3{fill-rule:evenodd;}.cls-4{clip-path:url(#clip-path);}</style><clipPath id="clip-path"><path class="cls-1" d="M39.57,82.36l-3.26-4.23-1.26,1.55v2.68h-1V72.59h1V78.2h0l4.48-5.61h1.24l-3.87,4.77,3.87,5Zm3.33,0V72.59h1v9.77Zm13.22,0v-8.7h0l-3.66,8.7h-.83L48,73.66h0v8.7H47V72.59h1.51L52,80.91l3.57-8.32h1.5v9.77Z"/></clipPath></defs><rect class="cls-2" width="100" height="100" rx="23"/><path class="cls-3" d="M67.35,29.15H30V40.53A137.08,137.08,0,0,0,16.74,47V17.64H67.17l.17,11.24Z"/><path class="cls-3" d="M30,56.34v26H16.92v-17A100.38,100.38,0,0,1,30,56.34Z"/><path class="cls-3" d="M99.5,25s-47.81,9.78-67.18,17.8S-2.76,60.2,1.08,69.8,12.42,82,12.42,82s-8.2-7.67-1-15.87,24.43-18,36.19-22.8C58.57,38.89,99.5,25,99.5,25"/><path class="cls-3" d="M84.71,33.42s-43.3,15.79-48.42,21-.77,10.88,4.14,8.15S68.09,42.07,84.71,33.42"/><path class="cls-1" d="M39.57,82.36l-3.26-4.23-1.26,1.55v2.68h-1V72.59h1V78.2h0l4.48-5.61h1.24l-3.87,4.77,3.87,5Zm3.33,0V72.59h1v9.77Zm13.22,0v-8.7h0l-3.66,8.7h-.83L48,73.66h0v8.7H47V72.59h1.51L52,80.91l3.57-8.32h1.5v9.77Z"/><g class="cls-4"><rect class="cls-1" x="-44.86" y="-29.48" width="188.46" height="188.46"/></g></svg>